<?xml version="1.0" encoding="UTF-8"?>
<svg width="700pt" height="700pt" version="1.1" viewBox="0 0 700 700" xmlns="http://www.w3.org/2000/svg" xmlns:xlink="http://www.w3.org/1999/xlink">
 <defs>
  <symbol id="k" overflow="visible">
   <path d="m20.844-1.25c-1.0742 0.5625-2.1953 0.98438-3.3594 1.2656-1.168 0.28125-2.3828 0.42188-3.6406 0.42188-3.7812 0-6.7773-1.0508-8.9844-3.1562-2.2109-2.1133-3.3125-4.9766-3.3125-8.5938 0-3.625 1.1016-6.4922 3.3125-8.6094 2.207-2.1133 5.2031-3.1719 8.9844-3.1719 1.2578 0 2.4727 0.14844 3.6406 0.4375 1.1641 0.28125 2.2852 0.69922 3.3594 1.25v4.7031c-1.0859-0.73828-2.1523-1.2812-3.2031-1.625-1.0547-0.34375-2.1641-0.51562-3.3281-0.51562-2.0859 0-3.7266 0.66797-4.9219 2-1.1992 1.3359-1.7969 3.1797-1.7969 5.5312 0 2.3359 0.59766 4.1719 1.7969 5.5156 1.1953 1.3359 2.8359 2 4.9219 2 1.1641 0 2.2734-0.17188 3.3281-0.51562 1.0508-0.34375 2.1172-0.88281 3.2031-1.625z"/>
  </symbol>
  <symbol id="d" overflow="visible">
   <path d="m15.25-12.375c-0.48047-0.22656-0.95312-0.39453-1.4219-0.5-0.46875-0.10156-0.94531-0.15625-1.4219-0.15625-1.3984 0-2.4766 0.44922-3.2344 1.3438-0.75 0.89844-1.125 2.1797-1.125 3.8438v7.8438h-5.4375v-17.016h5.4375v2.7969c0.69531-1.1133 1.5-1.9258 2.4062-2.4375 0.90625-0.50781 1.9922-0.76562 3.2656-0.76562 0.17578 0 0.36719 0.011719 0.57812 0.03125 0.21875 0.011719 0.53125 0.042969 0.9375 0.09375z"/>
  </symbol>
  <symbol id="c" overflow="visible">
   <path d="m19.594-8.5469v1.5469h-12.719c0.13281 1.2734 0.59766 2.2305 1.3906 2.875 0.78906 0.63672 1.8945 0.95312 3.3125 0.95312 1.1445 0 2.3164-0.16406 3.5156-0.5 1.1953-0.34375 2.4297-0.85938 3.7031-1.5469v4.1875c-1.293 0.49219-2.5859 0.85547-3.875 1.0938-1.2812 0.25-2.5625 0.375-3.8438 0.375-3.0859 0-5.4805-0.78125-7.1875-2.3438-1.6992-1.5625-2.5469-3.7539-2.5469-6.5781 0-2.7812 0.83203-4.9609 2.5-6.5469 1.6758-1.5938 3.9844-2.3906 6.9219-2.3906 2.6758 0 4.8164 0.80859 6.4219 2.4219 1.6016 1.6055 2.4062 3.7578 2.4062 6.4531zm-5.5938-1.8125c0-1.0312-0.30469-1.8633-0.90625-2.5-0.59375-0.63281-1.3828-0.95312-2.3594-0.95312-1.0547 0-1.9062 0.29688-2.5625 0.89062s-1.0703 1.4492-1.2344 2.5625z"/>
  </symbol>
  <symbol id="e" overflow="visible">
   <path d="m10.234-7.6562c-1.1367 0-1.9922 0.19531-2.5625 0.57812-0.5625 0.38672-0.84375 0.95312-0.84375 1.7031 0 0.6875 0.22656 1.2305 0.6875 1.625 0.45703 0.38672 1.0977 0.57812 1.9219 0.57812 1.0195 0 1.8789-0.36328 2.5781-1.0938 0.69531-0.73828 1.0469-1.6602 1.0469-2.7656v-0.625zm8.3125-2.0469v9.7031h-5.4844v-2.5156c-0.73047 1.0312-1.5547 1.7812-2.4688 2.25-0.90625 0.46875-2.0117 0.70312-3.3125 0.70312-1.7617 0-3.1953-0.50781-4.2969-1.5312-1.0938-1.0312-1.6406-2.3672-1.6406-4.0156 0-1.9883 0.67969-3.4453 2.0469-4.375 1.375-0.9375 3.5312-1.4062 6.4688-1.4062h3.2031v-0.42188c0-0.86328-0.33984-1.4922-1.0156-1.8906-0.67969-0.40625-1.7344-0.60938-3.1719-0.60938-1.168 0-2.2578 0.12109-3.2656 0.35938-1 0.23047-1.9297 0.57812-2.7812 1.0469v-4.1562c1.1641-0.28125 2.332-0.49219 3.5-0.64062 1.1758-0.14453 2.3516-0.21875 3.5312-0.21875 3.0703 0 5.2852 0.60547 6.6406 1.8125 1.3633 1.2109 2.0469 3.1797 2.0469 5.9062z"/>
  </symbol>
  <symbol id="b" overflow="visible">
   <path d="m8.5469-21.844v4.8281h5.6094v3.8906h-5.6094v7.2188c0 0.79297 0.15625 1.3281 0.46875 1.6094 0.32031 0.27344 0.94531 0.40625 1.875 0.40625h2.7969v3.8906h-4.6719c-2.1484 0-3.668-0.44531-4.5625-1.3438-0.89844-0.89453-1.3438-2.4141-1.3438-4.5625v-7.2188h-2.7031v-3.8906h2.7031v-4.8281z"/>
  </symbol>
  <symbol id="n" overflow="visible">
   <path d="m14.188-14.516v-9.125h5.4688v23.641h-5.4688v-2.4531c-0.75 1-1.5781 1.7344-2.4844 2.2031-0.89844 0.45703-1.9375 0.6875-3.125 0.6875-2.0938 0-3.8203-0.83203-5.1719-2.5-1.3438-1.6641-2.0156-3.8047-2.0156-6.4219 0-2.625 0.67188-4.7695 2.0156-6.4375 1.3516-1.6641 3.0781-2.5 5.1719-2.5 1.1758 0 2.2188 0.23438 3.125 0.70312s1.7344 1.2031 2.4844 2.2031zm-3.5781 11c1.1562 0 2.0391-0.42188 2.6562-1.2656 0.61328-0.85156 0.92188-2.0859 0.92188-3.7031 0-1.625-0.30859-2.8594-0.92188-3.7031-0.61719-0.85156-1.5-1.2812-2.6562-1.2812s-2.043 0.42969-2.6562 1.2812c-0.61719 0.84375-0.92188 2.0781-0.92188 3.7031 0 1.6172 0.30469 2.8516 0.92188 3.7031 0.61328 0.84375 1.5 1.2656 2.6562 1.2656z"/>
  </symbol>
  <symbol id="m" overflow="visible">
   <path d="m11.672-3.5156c1.1562 0 2.0391-0.42188 2.6562-1.2656 0.61328-0.85156 0.92188-2.0859 0.92188-3.7031 0-1.625-0.30859-2.8594-0.92188-3.7031-0.61719-0.85156-1.5-1.2812-2.6562-1.2812-1.168 0-2.0625 0.42969-2.6875 1.2812-0.625 0.85547-0.9375 2.0898-0.9375 3.7031 0 1.6055 0.3125 2.8359 0.9375 3.6875 0.625 0.85547 1.5195 1.2812 2.6875 1.2812zm-3.625-11c0.75-1 1.5781-1.7344 2.4844-2.2031 0.91406-0.46875 1.9688-0.70312 3.1562-0.70312 2.0938 0 3.8125 0.83594 5.1562 2.5 1.3516 1.668 2.0312 3.8125 2.0312 6.4375 0 2.6172-0.67969 4.7578-2.0312 6.4219-1.3438 1.668-3.0625 2.5-5.1562 2.5-1.1875 0-2.2422-0.23438-3.1562-0.70312-0.90625-0.46875-1.7344-1.1953-2.4844-2.1875v2.4531h-5.4375v-23.641h5.4375z"/>
  </symbol>
  <symbol id="l" overflow="visible">
   <path d="m0.375-17.016h5.4375l4.5781 11.547 3.8906-11.547h5.4375l-7.1562 18.625c-0.71875 1.8945-1.5586 3.2188-2.5156 3.9688-0.96094 0.75781-2.2188 1.1406-3.7812 1.1406h-3.1562v-3.5781h1.7031c0.92578 0 1.5977-0.14844 2.0156-0.4375 0.41406-0.29297 0.74219-0.82031 0.98438-1.5781l0.14062-0.46875z"/>
  </symbol>
  <symbol id="f" overflow="visible">
   <path d="m2.6094-17.016h5.4375v17.016h-5.4375zm0-6.625h5.4375v4.4375h-5.4375z"/>
  </symbol>
  <symbol id="j" overflow="visible">
   <path d="m15.906-16.484v4.1406c-1.168-0.48828-2.293-0.85156-3.375-1.0938-1.0859-0.25-2.1055-0.375-3.0625-0.375-1.043 0-1.8125 0.13281-2.3125 0.39062-0.5 0.26172-0.75 0.65625-0.75 1.1875 0 0.4375 0.1875 0.77734 0.5625 1.0156 0.38281 0.23047 1.0664 0.40234 2.0469 0.51562l0.96875 0.125c2.7812 0.35547 4.6484 0.9375 5.6094 1.75 0.96875 0.8125 1.4531 2.0859 1.4531 3.8125 0 1.8125-0.67188 3.1797-2.0156 4.0938-1.3359 0.90625-3.3281 1.3594-5.9844 1.3594-1.1172 0-2.2773-0.089844-3.4844-0.26562-1.1992-0.17578-2.4297-0.44141-3.6875-0.79688v-4.125c1.082 0.52344 2.1914 0.91797 3.3281 1.1875 1.1328 0.26172 2.2891 0.39062 3.4688 0.39062 1.0625 0 1.8594-0.14453 2.3906-0.4375 0.53906-0.30078 0.8125-0.73828 0.8125-1.3125 0-0.48828-0.1875-0.84766-0.5625-1.0781-0.36719-0.23828-1.1016-0.42578-2.2031-0.5625l-0.95312-0.125c-2.418-0.30078-4.1172-0.85938-5.0938-1.6719-0.96875-0.82031-1.4531-2.0703-1.4531-3.75 0-1.8008 0.61328-3.1328 1.8438-4 1.2383-0.875 3.1328-1.3125 5.6875-1.3125 1 0 2.0508 0.078125 3.1562 0.23438 1.1016 0.14844 2.3047 0.38281 3.6094 0.70312z"/>
  </symbol>
  <symbol id="i" overflow="visible">
   <path d="m19.719-10.359v10.359h-5.4688v-7.9219c0-1.4688-0.039062-2.4766-0.10938-3.0312-0.0625-0.5625-0.17188-0.97656-0.32812-1.25-0.21875-0.35156-0.51172-0.62891-0.875-0.82812-0.36719-0.19531-0.77734-0.29688-1.2344-0.29688-1.1367 0-2.0312 0.44531-2.6875 1.3281-0.64844 0.875-0.96875 2.0859-0.96875 3.625v8.375h-5.4375v-17.016h5.4375v2.5c0.82031-1 1.6914-1.7344 2.6094-2.2031 0.92578-0.46875 1.9453-0.70312 3.0625-0.70312 1.957 0 3.4453 0.60547 4.4688 1.8125 1.0195 1.1992 1.5312 2.9492 1.5312 5.25z"/>
  </symbol>
  <symbol id="a" overflow="visible">
   <path d="m10.703-13.531c-1.1992 0-2.1172 0.43359-2.75 1.2969-0.63672 0.86719-0.95312 2.1172-0.95312 3.75 0 1.625 0.31641 2.8711 0.95312 3.7344 0.63281 0.86719 1.5508 1.2969 2.75 1.2969 1.1875 0 2.0938-0.42969 2.7188-1.2969 0.63281-0.86328 0.95312-2.1094 0.95312-3.7344 0-1.6328-0.32031-2.8828-0.95312-3.75-0.625-0.86328-1.5312-1.2969-2.7188-1.2969zm0-3.8906c2.9258 0 5.2109 0.79297 6.8594 2.375 1.6445 1.5742 2.4688 3.7617 2.4688 6.5625 0 2.793-0.82422 4.9805-2.4688 6.5625-1.6484 1.5742-3.9336 2.3594-6.8594 2.3594-2.9375 0-5.2344-0.78516-6.8906-2.3594-1.6484-1.582-2.4688-3.7695-2.4688-6.5625 0-2.8008 0.82031-4.9883 2.4688-6.5625 1.6562-1.582 3.9531-2.375 6.8906-2.375z"/>
  </symbol>
  <symbol id="u" overflow="visible">
   <path d="m1.75-22.672h19.062v3.5312l-12.172 14.719h12.516v4.4219h-19.766v-3.5469l12.172-14.719h-11.812z"/>
  </symbol>
  <symbol id="h" overflow="visible">
   <path d="m2.4375-6.625v-10.391h5.4688v1.7031c0 0.92969-0.007812 2.0898-0.015625 3.4844-0.011719 1.3867-0.015625 2.3125-0.015625 2.7812 0 1.3672 0.03125 2.3516 0.09375 2.9531 0.070312 0.60547 0.19531 1.043 0.375 1.3125 0.21875 0.35547 0.50391 0.63281 0.85938 0.82812 0.36328 0.1875 0.78125 0.28125 1.25 0.28125 1.1328 0 2.0234-0.42969 2.6719-1.2969 0.64453-0.875 0.96875-2.0859 0.96875-3.6406v-8.4062h5.4375v17.016h-5.4375v-2.4531c-0.82422 0.99219-1.6953 1.7188-2.6094 2.1875-0.91797 0.46875-1.9297 0.70312-3.0312 0.70312-1.9609 0-3.4531-0.59766-4.4844-1.7969-1.0234-1.207-1.5312-2.9609-1.5312-5.2656z"/>
  </symbol>
  <symbol id="g" overflow="visible">
   <path d="m16.359-16.484v4.4375c-0.74219-0.50781-1.4844-0.88281-2.2344-1.125-0.74219-0.23828-1.5117-0.35938-2.3125-0.35938-1.5117 0-2.6953 0.44531-3.5469 1.3281-0.84375 0.88672-1.2656 2.125-1.2656 3.7188 0 1.5859 0.42188 2.8203 1.2656 3.7031 0.85156 0.88672 2.0352 1.3281 3.5469 1.3281 0.85156 0 1.6602-0.125 2.4219-0.375 0.76953-0.25 1.4766-0.625 2.125-1.125v4.4531c-0.85547 0.3125-1.7188 0.54688-2.5938 0.70312s-1.75 0.23438-2.625 0.23438c-3.0742 0-5.4766-0.78516-7.2031-2.3594-1.7305-1.5703-2.5938-3.7578-2.5938-6.5625 0-2.8125 0.86328-5.0039 2.5938-6.5781 1.7266-1.5703 4.1289-2.3594 7.2031-2.3594 0.88281 0 1.7578 0.078125 2.625 0.23438 0.86328 0.15625 1.7266 0.39062 2.5938 0.70312z"/>
  </symbol>
  <symbol id="t" overflow="visible">
   <path d="m13.812-23.641v3.5781h-3.0156c-0.77344 0-1.3086 0.14062-1.6094 0.42188-0.30469 0.27344-0.45312 0.75-0.45312 1.4375v1.1875h4.6406v3.8906h-4.6406v13.125h-5.4375v-13.125h-2.7031v-3.8906h2.7031v-1.1875c0-1.8516 0.51562-3.2227 1.5469-4.1094 1.0312-0.88281 2.6289-1.3281 4.7969-1.3281z"/>
  </symbol>
  <symbol id="s" overflow="visible">
   <path d="m18.375-14.188c0.6875-1.0508 1.5039-1.8516 2.4531-2.4062 0.94531-0.55078 1.9883-0.82812 3.125-0.82812 1.957 0 3.4453 0.60547 4.4688 1.8125 1.0195 1.1992 1.5312 2.9492 1.5312 5.25v10.359h-5.4688v-8.875c0.007813-0.125 0.015625-0.25781 0.015625-0.40625 0.007812-0.14453 0.015625-0.34766 0.015625-0.60938 0-1.207-0.17969-2.082-0.53125-2.625-0.35547-0.53906-0.92969-0.8125-1.7188-0.8125-1.0312 0-1.8281 0.42969-2.3906 1.2812-0.5625 0.85547-0.85547 2.0859-0.875 3.6875v8.3594h-5.4688v-8.875c0-1.8828-0.16406-3.0977-0.48438-3.6406-0.32422-0.53906-0.90234-0.8125-1.7344-0.8125-1.043 0-1.8516 0.43359-2.4219 1.2969-0.5625 0.85547-0.84375 2.0742-0.84375 3.6562v8.375h-5.4688v-17.016h5.4688v2.5c0.66406-0.96875 1.4297-1.6914 2.2969-2.1719 0.875-0.48828 1.832-0.73438 2.875-0.73438 1.1758 0 2.2109 0.28906 3.1094 0.85938 0.90625 0.5625 1.5859 1.3555 2.0469 2.375z"/>
  </symbol>
  <symbol id="r" overflow="visible">
   <path d="m19.719-10.359v10.359h-5.4688v-7.9062c0-1.4766-0.039062-2.4922-0.10938-3.0469-0.0625-0.5625-0.17188-0.97656-0.32812-1.25-0.21875-0.35156-0.51172-0.62891-0.875-0.82812-0.36719-0.19531-0.77734-0.29688-1.2344-0.29688-1.1367 0-2.0312 0.44531-2.6875 1.3281-0.64844 0.875-0.96875 2.0859-0.96875 3.625v8.375h-5.4375v-23.641h5.4375v9.125c0.82031-1 1.6914-1.7344 2.6094-2.2031 0.92578-0.46875 1.9453-0.70312 3.0625-0.70312 1.957 0 3.4453 0.60547 4.4688 1.8125 1.0195 1.1992 1.5312 2.9492 1.5312 5.25z"/>
  </symbol>
  <symbol id="q" overflow="visible">
   <path d="m2.8594-22.672h6.5312l8.25 15.547v-15.547h5.5469v22.672h-6.5469l-8.2344-15.562v15.562h-5.5469z"/>
  </symbol>
  <symbol id="p" overflow="visible">
   <path d="m2.8594-22.672h9.7031c2.8828 0 5.0977 0.64062 6.6406 1.9219 1.5508 1.2812 2.3281 3.1055 2.3281 5.4688 0 2.375-0.77734 4.2031-2.3281 5.4844-1.543 1.2812-3.7578 1.9219-6.6406 1.9219h-3.8594v7.875h-5.8438zm5.8438 4.2344v6.3281h3.2344c1.1328 0 2.0078-0.27344 2.625-0.82812 0.625-0.55078 0.9375-1.332 0.9375-2.3438 0-1.0078-0.3125-1.7852-0.9375-2.3281-0.61719-0.55078-1.4922-0.82812-2.625-0.82812z"/>
  </symbol>
  <symbol id="o" overflow="visible">
   <path d="m2.6094-17.016h5.4375v16.719c0 2.2695-0.54688 4.0039-1.6406 5.2031-1.0938 1.207-2.6797 1.8125-4.75 1.8125h-2.6875v-3.5781h0.9375c1.0312 0 1.7383-0.23438 2.125-0.70312 0.38281-0.46094 0.57812-1.3711 0.57812-2.7344zm0-6.625h5.4375v4.4375h-5.4375z"/>
  </symbol>
 </defs>
 <g>
  <path d="m505.38 427.44c1.1445-6.6562 1.0078-12.918-0.39062-18.805 8.7305-0.24219 17.484-0.64844 26.234-1.2461h0.09375c12.949-1.0938 23.684-6.4258 32.199-16.004 8.8047-9.8633 12.754-21.328 11.859-34.422-0.69141-10.328-4.2617-19.32-10.703-27 4.8906-0.67188 8.1992-1.3555 9.9297-2.0234l0.19141-0.09375c13.652-5.0898 24.098-13.895 31.328-26.414l0.097656-0.09375c7.9531-13.551 8.4922-28.23 1.6445-44.066v0.10547c-6.3906-16.102-20.242-25.871-41.559-29.309h0.19141c-3.1094-0.59766-6.5508-1.0391-10.309-1.3555 0.91016-1.4258 1.7422-2.9414 2.5-4.5352l0.097656-0.19141c5.2891-11.66 5.8906-23.582 1.8359-35.766-0.039062-0.074218-0.070312-0.17578-0.10547-0.28516-4.4102-12.145-12.188-21.117-23.328-26.898h0.097656c-9.7109-5.5195-23.301-7.4805-40.781-5.8789l0.007813-0.09375c-12.691 1.0312-65.297 12.562-157.82 34.609 0.26172-0.44922 0.51563-0.90234 0.77344-1.3516v0.097656c6.6719-11.305 11.777-23.738 15.324-37.316l-0.09375 0.097656c4.2266-15.152 2.7383-31.316-4.4375-48.484-8.3359-20.379-23.949-29.125-46.859-26.227h-0.09375c-22.062 2.1719-36.324 16.793-42.801 43.867-4.0742 17.262-8.125 28.695-12.152 34.32l-0.085938 0.097656c-4.4609 5.0664-11.762 10.465-21.891 16.195-0.0625 0.023438-0.12891 0.054688-0.19141 0.09375-14.492 7.9023-25.773 19.922-33.836 36.059v-0.097656c-2.4453 4.7617-4.5977 9.6367-6.4648 14.652-8.0312-5.207-15.039-7.5586-21.012-7.0312-19.938-0.78906-35.883 11.008-47.816 35.379l0.09375-0.097656c-8.4062 16.602-13.871 35.012-16.391 55.246v0.097657c-2.4531 20.426-0.19922 40.93 6.7461 61.508l0.09375 0.097656c7.7773 24.254 27.316 36.891 58.613 37.887 1.6602 0.054687 3.2031-0.16797 4.6289-0.66406 26.539 46.691 79.695 60.027 159.45 40.008 40.184 13.078 81.609 21.66 124.28 25.734h0.09375c12.078 1.1562 23.07-2.2148 32.973-10.125 9.918-7.9688 15.828-18.051 17.746-30.277zm-170.26-11.859c-2.5273-0.82812-5.0664-0.88281-7.6172-0.19141-78.383 20.52-126.16 3.5547-143.36-50.902-1.0391-3.5039-3.1484-6.1367-6.3672-7.9023-3.2305-1.7539-6.6094-2.1094-10.117-1.0703-3.5078 1.0312-6.1484 3.1484-7.9102 6.3672-1.7617 3.2305-2.1094 6.6016-1.0625 10.117 0.32812 1.1953 0.68359 2.3828 1.0625 3.5703-13.727-1.9961-22.754-8.4492-27.09-19.375l0.097657 0.097657c-5.6445-16.676-7.5117-33.297-5.5938-49.852 2.1016-17.035 6.6719-32.562 13.688-46.547l0.097656-0.10547c6.3203-12.918 14.285-19.77 23.91-20.539 3.4219 0.66016 7.9844 3.3594 13.688 8.1094-0.34375 1.9531-0.62109 3.9141-0.87109 5.875-0.45313 3.6406 0.44922 6.9062 2.6992 9.832 2.2695 2.8945 5.2266 4.5664 8.8672 5.0195 3.6406 0.45312 6.9258-0.44141 9.8359-2.707 2.8867-2.2656 4.5625-5.2188 5.0156-8.8672 1.7305-14.098 5.7109-27.211 11.953-39.336v-0.097656c5.5195-11.043 13.203-19.309 23.039-24.77l0.19141-0.097656c13.863-7.8203 23.695-15.352 29.5-22.555l0.097656-0.097656c6.2227-7.0195 12.039-22.031 17.453-45.023 3.2852-13.777 10.066-21.652 20.34-23.621h0.097656c9.1797-1.1836 15.504 2.1602 18.988 10.031 4.6406 11.102 5.7383 21.547 3.2734 31.336l-0.097656 0.09375c-2.875 11.113-7.0195 21.297-12.438 30.562v0.097656c-6.6562 11.406-10.738 21.496-12.238 30.27-0.082031 0.26172-0.14453 0.51562-0.19141 0.77344-0.085937 0.49609-0.15625 1.0195-0.19141 1.543-0.29688 4.2422-0.16797 12.184 0.38672 23.824v0.1875c0.34375 9.1484-2.4883 20.613-8.4805 34.414h-0.09375c-6.0977 13.496-17.766 24.461-35 32.871-3.2852 1.625-5.5391 4.1484-6.7461 7.6172-1.2148 3.4609-1.0195 6.832 0.57812 10.129 1.6133 3.293 4.1562 5.5508 7.6172 6.75 3.4414 1.207 6.8125 1.0195 10.125-0.58594 23.906-11.637 39.879-27.023 47.91-46.176h-0.09375c8.1016-18.504 11.699-33.961 10.797-46.375v-0.1875c-0.19922-4.2812-0.33594-7.9766-0.39062-11.09 99.176-23.719 155.29-36.156 168.32-37.316v-0.097656c11.062-0.96875 19.707 0.019531 25.934 2.9883h0.10547c4.9648 2.6641 8.4688 6.707 10.504 12.152 0.039063 0.09375 0.070313 0.1875 0.10547 0.28125 1.7188 5.3867 1.4258 10.66-0.87109 15.812-0.03125 0.070313-0.070313 0.13672-0.097657 0.19922-2.2969 4.7305-5.8906 8-10.797 9.8359l0.097656-0.10547c-7.9688 2.8867-16.012 5.5234-24.105 7.9102-0.24219 0.0625-0.49609 0.12891-0.76562 0.19141-1.2617 0.44141-4.7734 1.5-10.508 3.1875-0.29297 0.042969-0.58594 0.11328-0.87109 0.19141-27.82 8.1133-64.934 15.668-111.35 22.656-3.6445 0.53516-6.5703 2.2656-8.7656 5.2031-2.1797 2.9805-2.9805 6.2891-2.4141 9.9375 0.52734 3.6094 2.2656 6.5039 5.207 8.6875 2.957 2.1602 6.2344 2.9688 9.832 2.4062 47.723-7.1172 85.934-14.832 114.62-23.141 30.148-4.8984 52.539-6.1211 67.195-3.6641h0.19922c10.57 1.6914 17.676 6.1992 21.305 13.496v0.09375c3.168 7.3125 3.0664 14.094-0.29297 20.352l0.097656-0.10547c-4.043 6.9609-9.8633 11.883-17.453 14.754-9.707 3.0742-70.379 7.2539-182.01 12.539-0.16016-0.011718-0.32422-0.011718-0.48047 0-3.5859 0.14844-6.6094 1.5625-9.0664 4.2422-2.4844 2.6875-3.6758 5.8359-3.5664 9.4531 0.12891 3.6328 1.5039 6.7188 4.1445 9.2539 2.625 2.5 5.7422 3.7266 9.3516 3.6602h0.48438c89.723-1.4141 136.96-2.2383 141.72-2.5h0.1875c5.7109-0.40625 10.727 1.1953 15.039 4.8164l0.097656 0.09375c4.3477 3.8281 6.7266 8.5938 7.1289 14.281 0.39062 5.6797-1.3125 10.66-5.1094 14.941-3.7969 4.2734-8.5859 6.6445-14.359 7.1289-9.0352 0.64062-18.062 1.0781-27.09 1.3516-6.3945 0.11719-12.992 0.17969-19.762 0.1875-0.63281-0.054688-1.2773-0.054688-1.9297 0-32.66-0.042969-70.156-2.3203-112.51-6.8438-3.6328-0.38672-6.875 0.57812-9.7383 2.8945-2.8672 2.2891-4.5117 5.2578-4.9141 8.8672-0.38672 3.6406 0.57812 6.875 2.8945 9.7305 2.2891 2.8672 5.25 4.5156 8.8711 4.9219 41.52 4.4414 78.512 6.7812 110.96 7.0391 0.054688 0.09375 0.125 0.1875 0.19141 0.29297 2.8203 4.0391 3.7812 8.6719 2.8945 13.875v0.10547c-0.91016 5.5195-3.6016 10.074-8.1016 13.676-4.2109 3.3867-8.8711 4.9023-13.977 4.543-41.891-4.0664-82.547-12.691-121.95-25.875z"/>
  <use x="70" y="653.332031" xlink:href="#k"/>
  <use x="92.832031" y="653.332031" xlink:href="#d"/>
  <use x="108.175781" y="653.332031" xlink:href="#c"/>
  <use x="129.273437" y="653.332031" xlink:href="#e"/>
  <use x="150.269531" y="653.332031" xlink:href="#b"/>
  <use x="165.140625" y="653.332031" xlink:href="#c"/>
  <use x="186.242188" y="653.332031" xlink:href="#n"/>
  <use x="219.34375" y="653.332031" xlink:href="#m"/>
  <use x="241.613281" y="653.332031" xlink:href="#l"/>
  <use x="272.722656" y="653.332031" xlink:href="#k"/>
  <use x="295.554688" y="653.332031" xlink:href="#d"/>
  <use x="310.898438" y="653.332031" xlink:href="#f"/>
  <use x="321.5625" y="653.332031" xlink:href="#j"/>
  <use x="340.082031" y="653.332031" xlink:href="#b"/>
  <use x="354.953125" y="653.332031" xlink:href="#f"/>
  <use x="365.617187" y="653.332031" xlink:href="#e"/>
  <use x="386.609375" y="653.332031" xlink:href="#i"/>
  <use x="408.757812" y="653.332031" xlink:href="#a"/>
  <use x="440.964844" y="653.332031" xlink:href="#u"/>
  <use x="463.523437" y="653.332031" xlink:href="#a"/>
  <use x="484.894531" y="653.332031" xlink:href="#h"/>
  <use x="507.042969" y="653.332031" xlink:href="#g"/>
  <use x="525.484375" y="653.332031" xlink:href="#e"/>
  <use x="546.480469" y="653.332031" xlink:href="#j"/>
  <use x="70" y="684.445312" xlink:href="#t"/>
  <use x="83.535156" y="684.445312" xlink:href="#d"/>
  <use x="98.878906" y="684.445312" xlink:href="#a"/>
  <use x="120.25" y="684.445312" xlink:href="#s"/>
  <use x="163.5" y="684.445312" xlink:href="#b"/>
  <use x="178.371094" y="684.445312" xlink:href="#r"/>
  <use x="200.519531" y="684.445312" xlink:href="#c"/>
  <use x="232.453125" y="684.445312" xlink:href="#q"/>
  <use x="258.488281" y="684.445312" xlink:href="#a"/>
  <use x="279.863281" y="684.445312" xlink:href="#h"/>
  <use x="302.011719" y="684.445312" xlink:href="#i"/>
  <use x="334.992188" y="684.445312" xlink:href="#p"/>
  <use x="357.792969" y="684.445312" xlink:href="#d"/>
  <use x="373.136719" y="684.445312" xlink:href="#a"/>
  <use x="394.507812" y="684.445312" xlink:href="#o"/>
  <use x="405.171875" y="684.445312" xlink:href="#c"/>
  <use x="426.273437" y="684.445312" xlink:href="#g"/>
  <use x="444.714844" y="684.445312" xlink:href="#b"/>
 </g>
</svg>
